<svg xmlns="http://www.w3.org/2000/svg" width="46" height="46" viewBox="0 0 46 46">
  <g id="Group_9" data-name="Group 9" transform="translate(-1363 -227)">
    <g id="Group_8" data-name="Group 8" transform="translate(1379.005 244.374)">
      <line id="Line_2" data-name="Line 2" x1="14" y2="12" transform="translate(-0.005 -0.374)" fill="none" stroke="#919191" stroke-linecap="round" stroke-width="3"/>
      <line id="Line_3" data-name="Line 3" x2="14" y2="12" transform="translate(-0.005 -0.374)" fill="none" stroke="#919191" stroke-linecap="round" stroke-width="3"/>
    </g>
    <g id="Path_3088" data-name="Path 3088" transform="translate(1363 227)" fill="none">
      <path d="M23,0A23,23,0,1,1,0,23,23,23,0,0,1,23,0Z" stroke="none"/>
      <path d="M 23 3 C 17.65781021118164 3 12.63536834716797 5.080360412597656 8.857860565185547 8.857860565185547 C 5.080360412597656 12.63536834716797 3 17.65781021118164 3 23 C 3 28.34218978881836 5.080360412597656 33.36463165283203 8.857860565185547 37.14213943481445 C 12.63536834716797 40.91963958740234 17.65781021118164 43 23 43 C 28.34218978881836 43 33.36463165283203 40.91963958740234 37.14213943481445 37.14213943481445 C 40.91963958740234 33.36463165283203 43 28.34218978881836 43 23 C 43 17.65781021118164 40.91963958740234 12.63536834716797 37.14213943481445 8.857860565185547 C 33.36463165283203 5.080360412597656 28.34218978881836 3 23 3 M 23 0 C 35.70254898071289 0 46 10.29745101928711 46 23 C 46 35.70254898071289 35.70254898071289 46 23 46 C 10.29745101928711 46 0 35.70254898071289 0 23 C 0 10.29745101928711 10.29745101928711 0 23 0 Z" stroke="none" fill="#919191"/>
    </g>
  </g>
</svg>
